<svg width="84" height="65" fill="none" xmlns="http://www.w3.org/2000/svg"><path d="M19.797 49h-7.922V23.781l-7.781 2.274v-6l14.976-5.18h.727V49zm29.367-34.617v6.21h-.352c-2.953 0-5.382.712-7.289 2.134-1.89 1.406-3.054 3.367-3.492 5.882 1.782-1.75 4.032-2.625 6.75-2.625 2.953 0 5.305 1.078 7.055 3.235 1.75 2.156 2.625 4.984 2.625 8.484 0 2.172-.516 4.164-1.547 5.977-1.016 1.812-2.445 3.234-4.289 4.265-1.828 1.016-3.86 1.524-6.094 1.524-2.422 0-4.586-.547-6.492-1.64-1.906-1.11-3.39-2.688-4.453-4.735-1.063-2.047-1.61-4.407-1.64-7.078v-3.164c0-3.516.75-6.672 2.25-9.47 1.515-2.812 3.671-5.015 6.468-6.609 2.797-1.593 5.898-2.39 9.305-2.39h1.195zM42.04 32.03c-1.047 0-1.922.242-2.625.727-.703.484-1.227 1.078-1.57 1.781v2.367c0 4.313 1.492 6.469 4.476 6.469 1.203 0 2.203-.54 3-1.617.813-1.078 1.22-2.43 1.22-4.055 0-1.672-.415-3.031-1.243-4.078-.813-1.063-1.899-1.594-3.258-1.594zm34.685-1.55h5.994v5.08h-5.994v6.874h-5.537V35.56h-6.012v-5.08h6.011V23.8h5.538v6.68z" fill="#fff"/></svg>