<svg width="1092" height="523" fill="none" xmlns="http://www.w3.org/2000/svg"><mask id="a" maskUnits="userSpaceOnUse" x="0" y="0" width="1092" height="523"><path d="M1092 516c0 3.866-3.13 7-7 7H7a7 7 0 01-7-7V0h1092v516z" fill="#fff"/></mask><g mask="url(#a)"><path d="M1072.25 128.101c-63.79 22.959-134.313 18.264-201.37 7.891-61.895-9.562-125.609-23.647-186.766-13.839 61.821-13.741 127.403-2.09 191.019 4.965 67.45 7.473 138.217 9.144 200.947-16.518 52.83-21.631 99.63-66.959 111.92-120.963v26.916c-17.21 51.325-63.52 92.769-115.75 111.548z" fill="url(#paint0_linear)"/><path d="M128.979 663.107c14.7-2.851 29.817-8.603 42.009-11.749 23.5-6.072 46.557-13.938 68.827-23.647 43.926-19.124 84.927-45.5 119.021-79.299 20.329-20.156 38.076-42.894 52.284-67.745 36.478-63.689 49.359-138.219 81.363-204.268 33.603-69.368 91.884-130.23 166.266-150.461 38.199-10.373 77.603-9.635 117.153-5.063 30.432 3.515 60.961 9.291 91.073 13.986 66.516 10.373 136.355 15.068 199.645-7.89 63.3-22.959 118.41-79.692 120.89-146.97-.05 227.694-.07 455.634-.07 683.106H128.979z" fill="url(#paint1_linear)"/><path d="M128.975 663.107c14.7-2.851 29.817-8.603 42.009-11.749 23.5-6.072 46.557-13.938 68.827-23.647 43.926-19.124 84.927-45.5 119.021-79.299 20.329-20.156 38.076-42.894 52.284-67.745 36.478-63.689 49.359-138.219 81.363-204.268 33.602-69.368 91.884-130.23 166.266-150.461 38.199-10.373 77.603-9.635 117.153-5.063-353.72-4.327-259.501 492.947-249.3 542.232H128.975z" fill="url(#paint2_linear)"/><path d="M662.851 126.087a216.063 216.063 0 0118.854-5.088 221.2 221.2 0 00-22.983 4.916c-74.382 20.23-132.664 81.093-166.266 150.46-32.005 66.05-44.885 140.579-81.363 204.269-14.233 24.851-31.98 47.613-52.284 67.745-34.094 33.799-75.095 60.174-119.022 79.298-22.27 9.71-45.327 17.576-68.826 23.647-12.193 3.147-27.31 8.874-42.009 11.75h96.136a458.937 458.937 0 0040.952-17.551c43.041-21.017 82.887-49.137 115.457-84.387 19.444-21.016 36.183-44.516 49.31-69.957 33.676-65.214 43.311-140.235 72.415-207.587 30.604-70.719 86.181-134.065 159.629-157.515z" fill="url(#paint3_linear)"/><g style="mix-blend-mode:color-dodge"><mask id="b" maskUnits="userSpaceOnUse" x="623" y="212" width="582" height="445"><path transform="rotate(-180 1205 657)" fill="url(#paint4_linear)" d="M1205 657h582v445h-582z"/></mask><g mask="url(#b)"><path d="M1045.15 955.655c199.3 0 360.86-162.028 360.86-361.9 0-199.872-161.56-361.901-360.86-361.901-199.294 0-360.855 162.029-360.855 361.901s161.561 361.9 360.855 361.9z" fill="url(#paint5_linear)" opacity=".2"/><path d="M1374 1085c165.13-165.133 165.13-432.867 0-598-165.13-165.133-432.867-165.133-598 0-165.133 165.133-165.133 432.867 0 598 165.133 165.13 432.87 165.13 598 0z" stroke="#FFFF54" stroke-miterlimit="10" opacity=".2"/><path fill-rule="evenodd" clip-rule="evenodd" d="M1036.81 382.039c-154.366 0-279.509 125.143-279.509 279.508 0 154.365 125.143 279.508 279.509 279.508 154.36 0 279.51-125.143 279.51-279.508 0-154.365-125.13-279.508-279.51-279.508zm0 421.429c-78.383 0-141.922-63.539-141.922-141.921 0-78.382 63.539-141.92 141.922-141.92 78.38 0 141.92 63.538 141.92 141.92 0 78.369-63.54 141.921-141.92 141.921z" fill="url(#paint6_linear)" opacity=".2"/></g></g></g><defs><linearGradient id="paint0_linear" x1="1188" y1="67.106" x2="684.114" y2="67.106" gradientUnits="userSpaceOnUse"><stop stop-color="#72C6EF"/><stop offset="1" stop-color="#004E8F"/></linearGradient><linearGradient id="paint1_linear" x1="1187.51" y1="321.554" x2="128.979" y2="321.554" gradientUnits="userSpaceOnUse"><stop stop-color="#72C6EF"/><stop offset="1" stop-color="#004E8F"/></linearGradient><linearGradient id="paint2_linear" x1="775.898" y1="390.395" x2="128.975" y2="390.395" gradientUnits="userSpaceOnUse"><stop stop-color="#72C6EF"/><stop offset="1" stop-color="#004E8F"/></linearGradient><linearGradient id="paint3_linear" x1="681.705" y1="392.041" x2="128.952" y2="392.041" gradientUnits="userSpaceOnUse"><stop stop-color="#72C6EF"/><stop offset="1" stop-color="#004E8F"/></linearGradient><linearGradient id="paint4_linear" x1="1316.94" y1="1051.68" x2="1803.09" y2="737.908" gradientUnits="userSpaceOnUse"><stop stop-color="#149751"/><stop offset="1" stop-color="#41E28C"/></linearGradient><linearGradient id="paint5_linear" x1="1540.42" y1="223.871" x2="717.127" y2="835.196" gradientUnits="userSpaceOnUse"><stop stop-color="#C4FF13"/><stop offset=".034" stop-color="#A6F720"/><stop offset=".083" stop-color="#82ED30"/><stop offset=".123" stop-color="#6BE73A"/><stop offset=".148" stop-color="#63E53E"/><stop offset=".219" stop-color="#55CA44"/><stop offset=".326" stop-color="#43A74C"/><stop offset=".434" stop-color="#368D52"/><stop offset=".545" stop-color="#2C7957"/><stop offset=".657" stop-color="#266E59"/><stop offset=".775" stop-color="#246A5A"/></linearGradient><linearGradient id="paint6_linear" x1="1386.94" y1="400.811" x2="750.553" y2="874.716" gradientUnits="userSpaceOnUse"><stop stop-color="#C4FF13"/><stop offset=".049" stop-color="#A6F720"/><stop offset=".119" stop-color="#82ED30"/><stop offset=".176" stop-color="#6BE73A"/><stop offset=".212" stop-color="#63E53E"/><stop offset=".275" stop-color="#55CA44"/><stop offset=".371" stop-color="#43A74C"/><stop offset=".469" stop-color="#368D52"/><stop offset=".568" stop-color="#2C7957"/><stop offset=".669" stop-color="#266E59"/><stop offset=".775" stop-color="#246A5A"/></linearGradient></defs></svg>