<svg width="296" height="558" fill="none" xmlns="http://www.w3.org/2000/svg"><g filter="url(#filter0_i)"><mask id="a" maskUnits="userSpaceOnUse" x="0" y="0" width="296" height="558"><path fill="#C4C4C4" d="M0 0h296v558H0z"/></mask><g mask="url(#a)"><path fill-rule="evenodd" clip-rule="evenodd" d="M-65.19-3.622c52.122 7.423 81.54 61.023 127.576 86.636 56.055 31.187 146.437 19.364 170.239 79.056 23.423 58.741-54.055 110.041-70.48 171.123-17.884 66.507 28.168 161.535-29.171 199.457-58.227 38.509-130.553-31.925-198.165-49.105-46.762-11.882-96.097-9.59-136.551-35.942-42.027-27.378-67.995-70.157-93.097-113.656-32.071-55.575-88.032-110.996-72.489-173.286 15.511-62.163 89.039-87.617 145.211-118.16 49.121-26.709 101.605-54 156.926-46.123z" fill="url(#paint0_linear)"/></g></g><defs><linearGradient id="paint0_linear" x1="-370" y1="269.5" x2="237" y2="269.5" gradientUnits="userSpaceOnUse"><stop stop-color="#FFE259"/><stop offset="1" stop-color="#FFA751"/></linearGradient><filter id="filter0_i" x="0" y="0" width="239" height="546" filterUnits="userSpaceOnUse" color-interpolation-filters="sRGB"><feFlood flood-opacity="0" result="BackgroundImageFix"/><feBlend in="SourceGraphic" in2="BackgroundImageFix" result="shape"/><feColorMatrix in="SourceAlpha" values="0 0 0 0 0 0 0 0 0 0 0 0 0 0 0 0 0 0 127 0" result="hardAlpha"/><feOffset dx="2" dy="2"/><feGaussianBlur stdDeviation="5.5"/><feComposite in2="hardAlpha" operator="arithmetic" k2="-1" k3="1"/><feColorMatrix values="0 0 0 0 0 0 0 0 0 0 0 0 0 0 0 0 0 0 0.09 0"/><feBlend in2="shape" result="effect1_innerShadow"/></filter></defs></svg>