<svg width="1010" height="607" fill="none" xmlns="http://www.w3.org/2000/svg"><mask id="a" maskUnits="userSpaceOnUse" x="0" y="0" width="1010" height="607"><path d="M0 0h1010v607H0V0z" fill="#fff"/></mask><g mask="url(#a)"><path d="M19.752 535.012c63.788-22.959 134.311-18.264 201.368-7.891 61.895 9.562 125.609 23.647 186.766 13.839-61.821 13.741-127.403 2.09-191.019-4.965-67.45-7.473-138.219-9.144-200.95 16.518C-36.907 574.145-83.71 619.472-96 673.477v-26.916c17.207-51.326 63.517-92.769 115.752-111.549z" fill="url(#paint0_linear)"/><path d="M963.021.006c-14.7 2.851-29.817 8.603-42.009 11.75-23.5 6.071-46.557 13.937-68.827 23.647-43.926 19.124-84.927 45.499-119.021 79.298-20.329 20.156-38.076 42.894-52.284 67.745-36.478 63.69-49.359 138.219-81.363 204.268-33.603 69.368-91.884 130.231-166.266 150.461-38.199 10.373-77.603 9.636-117.153 5.064-30.432-3.515-60.961-9.292-91.073-13.987-66.516-10.373-136.351-15.068-199.647 7.891-63.296 22.958-118.407 79.691-120.89 146.969.05-227.694.074-455.633.074-683.106H963.021z" fill="url(#paint1_linear)"/><path d="M963.025.006c-14.7 2.851-29.817 8.603-42.009 11.75-23.5 6.071-46.557 13.937-68.827 23.647-43.926 19.124-84.927 45.499-119.021 79.298-20.329 20.156-38.076 42.894-52.284 67.745-36.478 63.69-49.359 138.219-81.363 204.268-33.602 69.368-91.884 130.231-166.266 150.461-38.199 10.373-77.603 9.636-117.153 5.064 353.72 4.326 259.501-492.948 249.3-542.233h397.623z" fill="url(#paint2_linear)"/><path d="M429.149 537.026a216.425 216.425 0 01-18.854 5.089 221.465 221.465 0 0022.983-4.917c74.382-20.23 132.664-81.092 166.266-150.46 32.005-66.049 44.885-140.579 81.363-204.268 14.233-24.852 31.98-47.614 52.284-67.746 34.094-33.799 75.095-60.174 119.022-79.298 22.27-9.71 45.327-17.576 68.826-23.647 12.193-3.146 27.31-8.874 42.009-11.75h-96.136A458.97 458.97 0 00825.96 17.58c-43.041 21.017-82.887 49.138-115.457 84.387-19.444 21.017-36.183 44.516-49.31 69.957-33.676 65.214-43.311 140.235-72.415 207.587-30.604 70.72-86.181 134.065-159.629 157.515z" fill="url(#paint3_linear)"/><g style="mix-blend-mode:color-dodge"><mask id="b" maskUnits="userSpaceOnUse" x="-113" y="-92" width="582" height="445"><path fill="url(#paint4_linear)" d="M-113-92h582v445h-582z"/></mask><g mask="url(#b)"><path d="M46.848-390.655c-199.296 0-360.858 162.029-360.858 361.9 0 199.872 161.562 361.901 360.858 361.901s360.857-162.029 360.857-361.9c0-199.872-161.561-361.901-360.857-361.901z" fill="url(#paint5_linear)" opacity=".2"/><path d="M-282-520c-165.133 165.133-165.133 432.867 0 598 165.133 165.133 432.867 165.133 598 0 165.133-165.133 165.133-432.867 0-598-165.133-165.133-432.867-165.133-598 0z" stroke="#FFFF54" stroke-miterlimit="10" opacity=".2"/><path fill-rule="evenodd" clip-rule="evenodd" d="M55.191 182.961c154.365 0 279.508-125.143 279.508-279.508 0-154.365-125.143-279.508-279.508-279.508-154.365 0-279.508 125.143-279.508 279.508 0 154.365 125.13 279.508 279.508 279.508zm0-421.428c78.382 0 141.921 63.538 141.921 141.92 0 78.382-63.539 141.92-141.92 141.92-78.383 0-141.921-63.538-141.921-141.92 0-78.369 63.538-141.92 141.92-141.92z" fill="url(#paint6_linear)" opacity=".2"/></g></g></g><defs><linearGradient id="paint0_linear" x1=".918" y1="655.957" x2="167.66" y2="388.347" gradientUnits="userSpaceOnUse"><stop stop-color="#149751"/><stop offset="1" stop-color="#41E28C"/></linearGradient><linearGradient id="paint1_linear" x1="108.086" y1="605.871" x2="898.437" y2="1.479" gradientUnits="userSpaceOnUse"><stop stop-color="#149751"/><stop offset="1" stop-color="#41E28C"/></linearGradient><linearGradient id="paint2_linear" x1="440.531" y1="483.758" x2="1010.68" y2="150.032" gradientUnits="userSpaceOnUse"><stop stop-color="#149751"/><stop offset="1" stop-color="#41E28C"/></linearGradient><linearGradient id="paint3_linear" x1="516.612" y1="480.819" x2="1038.52" y2="218.192" gradientUnits="userSpaceOnUse"><stop stop-color="#149751"/><stop offset="1" stop-color="#41E28C"/></linearGradient><linearGradient id="paint4_linear" x1="-1.058" y1="302.682" x2="485.092" y2="-11.092" gradientUnits="userSpaceOnUse"><stop stop-color="#149751"/><stop offset="1" stop-color="#41E28C"/></linearGradient><linearGradient id="paint5_linear" x1="-448.42" y1="341.129" x2="374.873" y2="-270.196" gradientUnits="userSpaceOnUse"><stop stop-color="#C4FF13"/><stop offset=".034" stop-color="#A6F720"/><stop offset=".083" stop-color="#82ED30"/><stop offset=".123" stop-color="#6BE73A"/><stop offset=".148" stop-color="#63E53E"/><stop offset=".219" stop-color="#55CA44"/><stop offset=".326" stop-color="#43A74C"/><stop offset=".434" stop-color="#368D52"/><stop offset=".545" stop-color="#2C7957"/><stop offset=".657" stop-color="#266E59"/><stop offset=".775" stop-color="#246A5A"/></linearGradient><linearGradient id="paint6_linear" x1="-294.939" y1="164.189" x2="341.447" y2="-309.716" gradientUnits="userSpaceOnUse"><stop stop-color="#C4FF13"/><stop offset=".049" stop-color="#A6F720"/><stop offset=".119" stop-color="#82ED30"/><stop offset=".176" stop-color="#6BE73A"/><stop offset=".212" stop-color="#63E53E"/><stop offset=".275" stop-color="#55CA44"/><stop offset=".371" stop-color="#43A74C"/><stop offset=".469" stop-color="#368D52"/><stop offset=".568" stop-color="#2C7957"/><stop offset=".669" stop-color="#266E59"/><stop offset=".775" stop-color="#246A5A"/></linearGradient></defs></svg>