<svg width="90" height="56" fill="none" xmlns="http://www.w3.org/2000/svg"><path d="M42.096 11.521H12.189c-1.399 0-2.634 1.037-2.634 2.42v28.346c0 1.383 1.235 2.42 2.634 2.42h.373c.49-6.453 6.107-11.753 12.937-11.753h3.613c6.83 0 12.424 5.3 12.937 11.753h.116a2.383 2.383 0 002.355-2.42V13.825c0-1.314-1.096-2.35-2.425-2.305zM27.34 31.271c-4.825 0-8.741-3.871-8.741-8.642 0-4.77 3.916-8.642 8.741-8.642 2.308 0 4.546.9 6.177 2.535a8.624 8.624 0 012.564 6.107c.024 4.748-3.892 8.642-8.74 8.642z" fill="#fff"/><path d="M29.136 37.565h-3.613c-4.266 0-7.785 3.226-8.275 7.144h20.163c-.513-3.918-4.01-7.145-8.275-7.145zm1.12-17.792c-1.585-1.567-4.173-1.567-5.758-.023a3.98 3.98 0 00-.023 5.692 4.092 4.092 0 005.758.023c.769-.76 1.212-1.774 1.212-2.834 0-1.083-.42-2.097-1.19-2.858z" fill="#fff"/><path d="M85.058 0H4.965C2.215 0 0 2.212 0 4.909V51.09C0 53.811 2.238 56 4.965 56h80.047c2.75 0 4.965-2.212 4.965-4.909H90V4.91C90 2.189 87.785 0 85.058 0zM55.315 19.819h15.198c1.282 0 2.33 1.037 2.33 2.305 0 1.267-1.048 2.304-2.33 2.304H55.315c-1.282 0-2.331-1.037-2.331-2.305 0-1.267 1.072-2.304 2.33-2.304zm-6.107 22.607c-.024 3.918-3.24 7.098-7.203 7.098H12.098c-3.963-.023-7.18-3.203-7.18-7.12V13.987c.024-3.917 3.24-7.097 7.203-7.097h29.884c3.986 0 7.203 3.18 7.203 7.12v28.415zm33.45-6.015H55.314c-1.282 0-2.331-1.037-2.331-2.304s1.049-2.305 2.33-2.305h27.343c1.282 0 2.331 1.038 2.331 2.305 0 1.267-1.049 2.304-2.33 2.304z" fill="#fff"/></svg>