<svg width="286" height="450" fill="none" xmlns="http://www.w3.org/2000/svg"><mask id="a" maskUnits="userSpaceOnUse" x="0" y="0" width="286" height="450"><path d="M0 0h286v443a7 7 0 01-7 7H7a7 7 0 01-7-7V0z" fill="#C4C4C4"/></mask><g filter="url(#filter0_i)" mask="url(#a)"><mask id="b" maskUnits="userSpaceOnUse" x="-10" y="-69" width="296" height="672"><path transform="matrix(-1 0 0 1 286 -69)" fill="url(#paint0_linear)" d="M0 0h296v671.781H0z"/></mask><g mask="url(#b)"><path fill-rule="evenodd" clip-rule="evenodd" d="M366.052-43.177c-58.282 8.3-91.175 68.244-142.651 96.888-62.678 34.877-163.738 21.655-190.353 88.411-26.19 65.692 60.442 123.064 78.808 191.374 19.997 74.377-31.497 180.651 32.617 223.061 65.107 43.067 145.978-35.704 221.579-54.916 52.287-13.288 107.451-10.725 152.685-40.196 46.993-30.617 76.028-78.459 104.097-127.106 35.859-62.151 98.432-124.131 81.053-193.792-17.343-69.52-99.559-97.986-162.367-132.143-54.925-29.87-113.61-60.391-175.468-51.581z" fill="url(#paint1_linear)"/></g></g><defs><linearGradient id="paint0_linear" x1="0" y1="335.891" x2="296" y2="335.891" gradientUnits="userSpaceOnUse"><stop stop-color="#000428"/><stop offset="1" stop-color="#004E92"/></linearGradient><linearGradient id="paint1_linear" x1="706.875" y1="262.266" x2="28.156" y2="262.266" gradientUnits="userSpaceOnUse"><stop stop-color="#000428"/><stop offset="1" stop-color="#004E92"/></linearGradient><filter id="filter0_i" x="28.156" y="-44.719" width="259.844" height="615.969" filterUnits="userSpaceOnUse" color-interpolation-filters="sRGB"><feFlood flood-opacity="0" result="BackgroundImageFix"/><feBlend in="SourceGraphic" in2="BackgroundImageFix" result="shape"/><feColorMatrix in="SourceAlpha" values="0 0 0 0 0 0 0 0 0 0 0 0 0 0 0 0 0 0 127 0" result="hardAlpha"/><feOffset dx="2" dy="2"/><feGaussianBlur stdDeviation="5.5"/><feComposite in2="hardAlpha" operator="arithmetic" k2="-1" k3="1"/><feColorMatrix values="0 0 0 0 0 0 0 0 0 0 0 0 0 0 0 0 0 0 0.09 0"/><feBlend in2="shape" result="effect1_innerShadow"/></filter></defs></svg>