<svg width="100" height="483" fill="none" xmlns="http://www.w3.org/2000/svg"><path fill-rule="evenodd" clip-rule="evenodd" d="M-165.664 481.041c45.721-6.512 71.525-53.537 111.907-76.007 49.17-27.361 128.45-16.988 149.328-69.357 20.546-51.534-47.415-96.542-61.822-150.13C18.06 127.2 58.457 43.83 8.16 10.56c-51.075-33.785-114.517 28.01-173.825 43.081-41.018 10.424-84.293 8.413-119.778 31.533-36.865 24.019-59.643 61.549-81.662 99.712-28.132 48.757-77.219 97.379-63.585 152.026 13.605 54.537 78.102 76.869 127.374 103.664 43.088 23.432 89.125 47.376 137.651 40.465z" fill="url(#paint0_linear)"/><defs><linearGradient id="paint0_linear" x1="-433.033" y1="241.426" x2="99.409" y2="241.426" gradientUnits="userSpaceOnUse"><stop stop-color="#50C9C3"/><stop offset="1" stop-color="#96DEDA"/></linearGradient></defs></svg>