<svg width="296" height="672" fill="none" xmlns="http://www.w3.org/2000/svg"><g filter="url(#filter0_i)"><mask id="a" maskUnits="userSpaceOnUse" x="0" y="0" width="296" height="672"><path transform="matrix(-1 0 0 1 296 0)" fill="#C4C4C4" d="M0 0h296v671.781H0z"/></mask><g mask="url(#a)"><path fill-rule="evenodd" clip-rule="evenodd" d="M376.052 25.823c-58.282 8.3-91.175 68.244-142.651 96.888-62.678 34.877-163.738 21.655-190.353 88.411-26.19 65.692 60.442 123.064 78.808 191.374 19.997 74.377-31.497 180.651 32.617 223.061 65.107 43.067 145.978-35.704 221.579-54.916 52.287-13.288 107.451-10.725 152.685-40.196 46.993-30.617 76.028-78.459 104.097-127.106 35.859-62.151 98.432-124.131 81.053-193.792-17.343-69.52-99.559-97.986-162.367-132.143-54.925-29.87-113.61-60.391-175.468-51.581z" fill="url(#paint0_linear)"/></g></g><defs><linearGradient id="paint0_linear" x1="586.33" y1="568.826" x2="-32.585" y2="231.183" gradientUnits="userSpaceOnUse"><stop stop-color="#149751"/><stop offset="1" stop-color="#41E28C"/></linearGradient><filter id="filter0_i" x="38.156" y="24.281" width="259.844" height="615.969" filterUnits="userSpaceOnUse" color-interpolation-filters="sRGB"><feFlood flood-opacity="0" result="BackgroundImageFix"/><feBlend in="SourceGraphic" in2="BackgroundImageFix" result="shape"/><feColorMatrix in="SourceAlpha" values="0 0 0 0 0 0 0 0 0 0 0 0 0 0 0 0 0 0 127 0" result="hardAlpha"/><feOffset dx="2" dy="2"/><feGaussianBlur stdDeviation="5.5"/><feComposite in2="hardAlpha" operator="arithmetic" k2="-1" k3="1"/><feColorMatrix values="0 0 0 0 0 0 0 0 0 0 0 0 0 0 0 0 0 0 0.09 0"/><feBlend in2="shape" result="effect1_innerShadow"/></filter></defs></svg>