<svg width="233" height="527" fill="none" xmlns="http://www.w3.org/2000/svg"><g filter="url(#filter0_i)"><mask id="a" maskUnits="userSpaceOnUse" x="0" y="0" width="233" height="527"><path transform="matrix(1 0 0 -1 0 527)" fill="#C4C4C4" d="M0 0h232.207v527H0z"/></mask><g mask="url(#a)"><path fill-rule="evenodd" clip-rule="evenodd" d="M-165.664 503.041c45.721-6.512 71.525-53.537 111.907-76.007 49.17-27.361 128.45-16.988 149.328-69.357 20.546-51.534-47.415-96.542-61.822-150.13C18.06 149.2 58.457 65.83 8.16 32.56-42.914-1.225-106.356 60.57-165.664 75.641c-41.018 10.424-84.293 8.413-119.778 31.533-36.865 24.019-59.643 61.549-81.662 99.712-28.132 48.757-77.219 97.379-63.585 152.026 13.605 54.537 78.102 76.869 127.374 103.664 43.088 23.432 89.125 47.376 137.651 40.465z" fill="url(#paint0_linear)"/></g></g><defs><linearGradient id="paint0_linear" x1="-103" y1="76" x2="423" y2="359" gradientUnits="userSpaceOnUse"><stop stop-color="#72C6EF"/><stop offset="1" stop-color="#004E8F"/></linearGradient><filter id="filter0_i" x="0" y="22.603" width="101.409" height="483.647" filterUnits="userSpaceOnUse" color-interpolation-filters="sRGB"><feFlood flood-opacity="0" result="BackgroundImageFix"/><feBlend in="SourceGraphic" in2="BackgroundImageFix" result="shape"/><feColorMatrix in="SourceAlpha" values="0 0 0 0 0 0 0 0 0 0 0 0 0 0 0 0 0 0 127 0" result="hardAlpha"/><feOffset dx="2" dy="2"/><feGaussianBlur stdDeviation="5.5"/><feComposite in2="hardAlpha" operator="arithmetic" k2="-1" k3="1"/><feColorMatrix values="0 0 0 0 0 0 0 0 0 0 0 0 0 0 0 0 0 0 0.09 0"/><feBlend in2="shape" result="effect1_innerShadow"/></filter></defs></svg>