<svg width="235" height="180" fill="none" xmlns="http://www.w3.org/2000/svg"><g style="mix-blend-mode:color-dodge"><mask id="a" maskUnits="userSpaceOnUse" x="0" y="-1" width="235" height="181"><path d="M235 169.682c0 5.522-4.477 10-10 10H0V0h235v169.682z" fill="url(#paint0_linear)"/></mask><g mask="url(#a)"><path d="M170.457 300.272c80.472 0 145.707-65.424 145.707-146.128 0-80.704-65.235-146.128-145.707-146.128S24.75 73.44 24.75 154.144c0 80.704 65.235 146.128 145.707 146.128z" fill="url(#paint1_linear)" opacity=".2"/><path d="M303.239 352.5c66.677-66.678 66.677-174.784 0-241.461-66.678-66.677-174.783-66.677-241.46 0-66.678 66.677-66.678 174.783 0 241.46 66.677 66.678 174.782 66.678 241.46.001z" stroke="#FFFF54" stroke-miterlimit="10" opacity=".2"/><path fill-rule="evenodd" clip-rule="evenodd" d="M167.088 68.658c-62.329 0-112.86 50.53-112.86 112.86 0 62.329 50.531 112.859 112.86 112.859 62.33 0 112.86-50.53 112.86-112.859 0-62.33-50.525-112.86-112.86-112.86zm0 170.164c-31.649 0-57.304-25.655-57.304-57.304s25.655-57.305 57.304-57.305 57.305 25.656 57.305 57.305c0 31.643-25.656 57.304-57.305 57.304z" fill="url(#paint2_linear)" opacity=".2"/></g></g><defs><linearGradient id="paint0_linear" x1="189.8" y1="20.317" x2="-6.498" y2="147.012" gradientUnits="userSpaceOnUse"><stop stop-color="#149751"/><stop offset="1" stop-color="#41E28C"/></linearGradient><linearGradient id="paint1_linear" x1="370.436" y1="4.792" x2="38.007" y2="251.633" gradientUnits="userSpaceOnUse"><stop stop-color="#C4FF13"/><stop offset=".034" stop-color="#A6F720"/><stop offset=".083" stop-color="#82ED30"/><stop offset=".123" stop-color="#6BE73A"/><stop offset=".148" stop-color="#63E53E"/><stop offset=".219" stop-color="#55CA44"/><stop offset=".326" stop-color="#43A74C"/><stop offset=".434" stop-color="#368D52"/><stop offset=".545" stop-color="#2C7957"/><stop offset=".657" stop-color="#266E59"/><stop offset=".775" stop-color="#246A5A"/></linearGradient><linearGradient id="paint2_linear" x1="308.464" y1="76.237" x2="51.504" y2="267.591" gradientUnits="userSpaceOnUse"><stop stop-color="#C4FF13"/><stop offset=".049" stop-color="#A6F720"/><stop offset=".119" stop-color="#82ED30"/><stop offset=".176" stop-color="#6BE73A"/><stop offset=".212" stop-color="#63E53E"/><stop offset=".275" stop-color="#55CA44"/><stop offset=".371" stop-color="#43A74C"/><stop offset=".469" stop-color="#368D52"/><stop offset=".568" stop-color="#2C7957"/><stop offset=".669" stop-color="#266E59"/><stop offset=".775" stop-color="#246A5A"/></linearGradient></defs></svg>