<svg width="70" height="70" fill="none" xmlns="http://www.w3.org/2000/svg"><path d="M64.891 52.614a1.167 1.167 0 011.171 1.169v10.371c0 3.229-2.611 5.846-5.833 5.846H5.833C2.612 70 0 67.383 0 64.154V20.605c0-3.228 2.612-5.845 5.833-5.845H60.23a5.84 5.84 0 015.834 5.845v10.376c0 .648-.525 1.172-1.171 1.17-1.214-.006-3.99 0-10.786 0-3.867 0-7.002 3.14-7.002 7.014v6.43c0 3.874 3.134 7.015 7 7.015 6.899 0 9.599.01 10.787.004zM70 39.164v6.431c0 2.585-2.1 4.676-4.664 4.676H54.104a4.677 4.677 0 01-4.666-4.676v-6.43a4.677 4.677 0 014.666-4.676h11.23A4.677 4.677 0 0170 39.165zM58.48 42.38c0-.646-.523-1.17-1.167-1.17h-1.75c-.645 0-1.167.524-1.167 1.17 0 .646.522 1.17 1.166 1.17h1.75c.645 0 1.167-.524 1.167-1.17zM55.503 7.449l-1.087-.321a1.167 1.167 0 00-1.248.398c-.885 1.127-1.562 2.293-1.674 3.63a1.169 1.169 0 001.164 1.266h4.98c.728 0 1.29-.662 1.15-1.377a4.672 4.672 0 00-3.285-3.596zm-6.356 3.837c.043-1.389.497-2.626 1.224-3.823a1.168 1.168 0 00-.668-1.726l-7.398-2.183a1.149 1.149 0 00-1.473 1.122v6.577c0 .645.523 1.169 1.167 1.169h5.983c.631 0 1.145-.504 1.165-1.136zm-28.731 1.136h1.604c.644 0 1.166-.524 1.166-1.17V1.17A1.165 1.165 0 0022.021 0h-1.604c-.645 0-1.167.523-1.167 1.17v10.083c0 .645.522 1.169 1.167 1.169zM33.833 0h-7.145c-.645 0-1.167.523-1.167 1.17v10.083c0 .645.522 1.169 1.166 1.169h10.646c.645 0 1.167-.524 1.167-1.17V4.677A4.677 4.677 0 0033.833 0zM15.75 0h-1.604a4.672 4.672 0 00-4.667 4.676v6.577c0 .645.523 1.169 1.167 1.169h5.104c.644 0 1.167-.524 1.167-1.17V1.17c0-.647-.523-1.17-1.167-1.17z" fill="#fff"/></svg>